<svg width="14" height="36" viewBox="0 0 14 36" fill="none" xmlns="http://www.w3.org/2000/svg">
<path d="M10.7017 28.4141C10.9707 28.6738 11.2954 28.8223 11.6851 28.8223C12.4736 28.8223 13.0952 28.2007 13.0952 27.4214C13.0952 27.0317 12.9375 26.6792 12.6592 26.4009L4.25391 18.2925L12.6592 10.1934C12.9375 9.91504 13.0952 9.55322 13.0952 9.17285C13.0952 8.39355 12.4736 7.77197 11.6851 7.77197C11.2954 7.77197 10.98 7.91113 10.7017 8.18018L1.40576 17.1699C1.07178 17.4946 0.895508 17.8657 0.895508 18.3018C0.895508 18.7285 1.0625 19.0811 1.40576 19.4243L10.7017 28.4141Z" fill="white"/>
</svg>
