<svg width="24" height="20" viewBox="0 0 24 20" fill="none" xmlns="http://www.w3.org/2000/svg">
<mask id="path-1-inside-1_516_3002" fill="white">
<path fill-rule="evenodd" clip-rule="evenodd" d="M0.0129798 7C0.00436871 6.8647 0 6.7283 0 6.59092C0 2.95086 3.06702 0 6.85039 0C8.90281 0 10.7444 0.868407 11.9999 2.24415C13.2554 0.868407 15.097 0 17.1495 0C20.9328 0 23.9999 2.95086 23.9999 6.59092C23.9999 6.7283 23.9955 6.8647 23.9869 7H24C24 14.1797 12 20 12 20C12 20 4.24905e-05 14.1797 1.26253e-05 7H0.0129798Z"/>
</mask>
<path d="M0.0129798 7V9H2.14432L2.00894 6.87296L0.0129798 7ZM11.9999 2.24415L10.5226 3.59234L11.9999 5.2111L13.4772 3.59234L11.9999 2.24415ZM23.9869 7L21.9909 6.87296L21.8555 9H23.9869V7ZM24 7L26 7.00001L26 5H24V7ZM12 20L11.1272 21.7995L12 22.2228L12.8728 21.7995L12 20ZM1.26253e-05 7V5H-2L-1.99999 7.00001L1.26253e-05 7ZM2.00894 6.87296C2.00302 6.77992 2 6.68589 2 6.59092H-2C-2 6.77072 -1.99428 6.94948 -1.98298 7.12703L2.00894 6.87296ZM2 6.59092C2 4.12751 4.09811 2 6.85039 2V-2C2.03594 -2 -2 1.7742 -2 6.59092H2ZM6.85039 2C8.33097 2 9.63948 2.62461 10.5226 3.59234L13.4772 0.895968C11.8493 -0.887799 9.47465 -2 6.85039 -2V2ZM13.4772 3.59234C14.3604 2.62461 15.6689 2 17.1495 2V-2C14.5252 -2 12.1505 -0.887799 10.5226 0.895968L13.4772 3.59234ZM17.1495 2C19.9017 2 21.9999 4.12751 21.9999 6.59092H25.9999C25.9999 1.7742 21.9639 -2 17.1495 -2V2ZM21.9999 6.59092C21.9999 6.6859 21.9968 6.77993 21.9909 6.87296L25.9828 7.12704C25.9941 6.94948 25.9999 6.77071 25.9999 6.59092H21.9999ZM24 5H23.9869V9H24V5ZM12 20C12.8728 21.7995 12.8733 21.7993 12.8738 21.799C12.874 21.7989 12.8746 21.7986 12.8751 21.7984C12.876 21.798 12.8771 21.7974 12.8784 21.7968C12.881 21.7955 12.8844 21.7939 12.8884 21.7919C12.8965 21.7879 12.9075 21.7825 12.9212 21.7757C12.9487 21.7621 12.9873 21.7429 13.0363 21.7182C13.1342 21.6687 13.2738 21.5972 13.4491 21.5047C13.7995 21.3198 14.2939 21.0503 14.8846 20.7049C16.0615 20.0167 17.6423 19.0145 19.2341 17.7662C20.8167 16.5252 22.4717 14.9933 23.7455 13.2324C25.0158 11.4762 26 9.36096 26 7.00001L22 6.99999C22 8.22889 21.4842 9.53359 20.5045 10.888C19.5283 12.2376 18.1833 13.507 16.7658 14.6186C15.3576 15.7229 13.9385 16.6245 12.8654 17.2519C12.3311 17.5643 11.888 17.8057 11.5821 17.9671C11.4293 18.0478 11.3111 18.1083 11.2333 18.1476C11.1943 18.1672 11.1656 18.1816 11.1476 18.1904C11.1387 18.1949 11.1324 18.1979 11.129 18.1996C11.1273 18.2005 11.1263 18.2009 11.126 18.2011C11.1258 18.2012 11.1258 18.2012 11.126 18.2011C11.1261 18.201 11.1264 18.2009 11.1265 18.2008C11.1268 18.2007 11.1272 18.2005 12 20ZM-1.99999 7.00001C-1.99998 9.36096 -1.01577 11.4762 0.254521 13.2324C1.52829 14.9933 3.18335 16.5252 4.76587 17.7662C6.35767 19.0145 7.93847 20.0167 9.11545 20.7049C9.70614 21.0503 10.2005 21.3198 10.5509 21.5047C10.7262 21.5972 10.8658 21.6687 10.9637 21.7182C11.0127 21.7429 11.0513 21.7621 11.0788 21.7757C11.0925 21.7825 11.1035 21.7879 11.1116 21.7919C11.1157 21.7939 11.119 21.7955 11.1216 21.7968C11.1229 21.7974 11.124 21.798 11.1249 21.7984C11.1254 21.7986 11.126 21.7989 11.1262 21.799C11.1267 21.7993 11.1272 21.7995 12 20C12.8728 18.2005 12.8732 18.2007 12.8735 18.2008C12.8736 18.2009 12.8739 18.201 12.874 18.2011C12.8742 18.2012 12.8742 18.2012 12.8741 18.2011C12.8737 18.201 12.8727 18.2005 12.871 18.1996C12.8676 18.1979 12.8613 18.1949 12.8524 18.1904C12.8344 18.1816 12.8057 18.1672 12.7668 18.1476C12.6889 18.1083 12.5707 18.0478 12.4179 17.9671C12.112 17.8057 11.6689 17.5643 11.1346 17.2519C10.0616 16.6245 8.64236 15.7229 7.23417 14.6186C5.8167 13.507 4.47176 12.2376 3.49553 10.888C2.51582 9.53359 2.00002 8.22889 2.00001 6.99999L-1.99999 7.00001ZM0.0129798 5H1.26253e-05V9H0.0129798V5Z" fill="#3366FF" mask="url(#path-1-inside-1_516_3002)"/>
</svg>
