<svg width="71" height="98" viewBox="0 0 71 98" fill="none" xmlns="http://www.w3.org/2000/svg">
<path fill-rule="evenodd" clip-rule="evenodd" d="M22.6261 35.1321H48.3734V24.8688C48.3734 17.6744 42.6097 11.8423 35.4998 11.8423C28.3899 11.8423 22.6261 17.6744 22.6261 24.8688V35.1321ZM10.9229 35.1321H6.87097C3.07624 35.1321 0 38.2083 0 42.003V75.0968C0 87.7459 10.2541 98 22.9032 98H48.0968C60.7459 98 71 87.7459 71 75.0968V42.003C71 38.2083 67.9238 35.1321 64.129 35.1321H60.0767V24.8688C60.0767 11.1341 49.0732 0 35.4998 0C21.9263 0 10.9229 11.1341 10.9229 24.8688V35.1321Z" fill="white"/>
</svg>
